<?xml version="1.0" encoding="UTF-8"?>
<!DOCTYPE svg PUBLIC "-//W3C//DTD SVG 1.1//EN" "http://www.w3.org/Graphics/SVG/1.1/DTD/svg11.dtd">
<!-- Creator: CorelDRAW 2020 (64-Bit) -->
<svg xmlns="http://www.w3.org/2000/svg" xml:space="preserve" width="297mm" height="210mm" version="1.1" style="shape-rendering:geometricPrecision; text-rendering:geometricPrecision; image-rendering:optimizeQuality; fill-rule:evenodd; clip-rule:evenodd"
viewBox="0 0 29700 21000"
 xmlns:xlink="http://www.w3.org/1999/xlink"
 xmlns:xodm="http://www.corel.com/coreldraw/odm/2003">
 <defs>
  <style type="text/css">
   <![CDATA[
    .fil4 {fill:none}
    .fil5 {fill:#FEFEFE}
    .fil7 {fill:#008DD2}
    .fil3 {fill:#FEFEFE;fill-rule:nonzero}
    .fil6 {fill:#4E565A;fill-rule:nonzero}
    .fil1 {fill:#008DD2;fill-rule:nonzero}
    .fil0 {fill:#23376C;fill-rule:nonzero}
    .fil2 {fill:url(#id1)}
   ]]>
  </style>
    <clipPath id="id0">
     <path d="M7539.37 11249.68c71.26,-49.35 165.42,-217.9 208.02,-330.73 58.74,-155.61 74.82,-299.12 74.71,-481.87 -0.22,-366.95 0.23,-733.92 0.43,-1100.87 0.19,-358.92 14.09,-745.81 -1.34,-1101.32 -26.25,-605.01 -492.35,-1059.22 -1136.84,-1064.04 -366.46,-2.73 -734.26,0.4 -1100.88,0.55 -365.51,0.15 -736.04,-5.69 -1100.92,0.67 -279.68,4.87 -633.15,127.69 -780.1,315.95 -69.52,40.49 -182.24,220.04 -233.29,328.21 -64.99,137.71 -96.8,296.76 -99.84,468.52 -6.6,372.81 0.21,752.13 0.33,1125.67 0.13,371.65 -9.06,755.82 1.31,1125.91 9.59,342.56 167.6,630.75 340.05,783.53 210.89,186.82 430.44,303.32 821.07,303.95 375.18,0.6 750.41,0.29 1125.61,0.46 363.57,0.17 767.2,16.84 1125.94,-2.36 166.42,-8.91 302.54,-51.74 435.89,-117.24 110.2,-54.12 285.18,-177.22 319.85,-254.99z"/>
    </clipPath>
  <linearGradient id="id1" gradientUnits="userSpaceOnUse" x1="5597.24" y1="11631.14" x2="5597.24" y2="7169.12">
   <stop offset="0" style="stop-opacity:1; stop-color:#23376C"/>
   <stop offset="1" style="stop-opacity:1; stop-color:#008DD2"/>
  </linearGradient>
 </defs>
 <g id="Layer_x0020_1">
  <metadata id="CorelCorpID_0Corel-Layer"/>
  <g id="_2645984607040">
   <g>
    <path class="fil0" d="M9446.27 10433.64c0,87.58 45.56,131.38 136.64,131.38l226.02 -120.88 0 578.14 -583.41 0c-140.12,0 -240.86,-33.27 -302.18,-99.86 -61.32,-66.59 -92,-168.17 -92,-304.85l0 -2054.99 -231.24 0 0 -457.22 231.24 0 0 -383.68 614.93 -147.18 0 530.86 362.66 0 0 457.22 -362.66 0 0 1871.06zm641.21 -383.68c0,-98.11 18.4,-182.21 55.18,-252.27 36.78,-70.05 98.98,-129.62 186.6,-178.69l925 -504.53 0 -362.66c0,-59.57 -13.17,-106.01 -39.42,-139.28 -26.29,-33.28 -70.98,-49.95 -134.05,-49.95l-189.19 0c-59.57,0 -103.37,16.67 -131.38,49.95 -28.05,33.27 -42.05,79.71 -42.05,139.28l0 210.21 -588.63 320.61 0 -772.6c0,-136.64 29.76,-238.26 89.32,-304.81 59.57,-66.58 161.18,-99.86 304.85,-99.86l951.3 0c140.11,0 240.85,33.28 302.17,99.86 61.32,66.55 92,168.17 92,304.81l0 2244.22 152.41 268.03 -1539.93 0c-143.67,0 -245.28,-33.27 -304.85,-99.86 -59.56,-66.59 -89.33,-168.17 -89.33,-304.85l0 -567.61zm1166.78 515.06l0 -872.45 -362.66 199.72c-73.57,42.05 -124.4,84.1 -152.41,126.15 -28.04,42.05 -42.05,108.6 -42.05,199.72l0 94.6c0,80.59 18.4,142.79 55.18,186.55 36.78,43.81 95.47,65.71 176.06,65.71l325.88 0zm1702.82 189.23l152.45 268.03 -919.78 0 152.41 -268.03 0 -3027.31 -152.41 -268.06 767.33 -168.17 0 3463.54zm1087.94 -1419.08l499.31 -961.78 -10.49 -268.03 956.51 0 -278.55 262.76 -588.64 940.8 662.25 1450.56 247 262.8 -982.82 0 42.06 -268.03 -346.91 -925.04 -199.72 315.34 0 609.7 152.45 268.03 -919.78 0 152.41 -268.03 0 -3027.31 -152.41 -268.06 767.33 -168.17 0 2044.46z"/>
    <path class="fil1" d="M16126.31 11022.28l-494.04 -2648.89 -183.93 -268.03 961.79 0 -126.15 273.29 294.31 2170.61 299.59 -2170.61 -120.89 -273.29 940.8 0 -189.23 268.03 -494.04 2648.89 -888.21 0zm1681.83 -972.32c0,-98.11 18.4,-182.21 55.18,-252.27 36.79,-70.05 98.98,-129.62 186.6,-178.69l925 -504.53 0 -362.66c0,-59.57 -13.17,-106.01 -39.42,-139.28 -26.29,-33.28 -70.98,-49.95 -134.05,-49.95l-189.19 0c-59.57,0 -103.37,16.67 -131.38,49.95 -28.05,33.27 -42.05,79.71 -42.05,139.28l0 210.21 -588.63 320.61 0 -772.6c0,-136.64 29.76,-238.26 89.32,-304.81 59.57,-66.58 161.19,-99.86 304.85,-99.86l951.3 0c140.11,0 240.85,33.28 302.17,99.86 61.32,66.55 92.01,168.17 92.01,304.81l0 2244.22 152.4 268.03 -1539.93 0c-143.67,0 -245.28,-33.27 -304.85,-99.86 -59.56,-66.59 -89.33,-168.17 -89.33,-304.85l0 -567.61zm1166.78 515.06l0 -872.45 -362.66 199.72c-73.57,42.05 -124.4,84.1 -152.41,126.15 -28.04,42.05 -42.05,108.6 -42.05,199.72l0 94.6c0,80.59 18.4,142.79 55.18,186.55 36.78,43.81 95.47,65.71 176.06,65.71l325.88 0zm1702.82 189.23l152.45 268.03 -919.78 0 152.41 -268.03 0 -3027.31 -152.41 -268.06 767.33 -168.17 0 3463.54zm1087.94 0l152.45 268.03 -919.78 0 152.41 -268.03 0 -3027.31 -152.41 -268.06 767.33 -168.17 0 3463.54zm2196.91 -1455.86l-1166.78 635.95 0 441.49c0,59.57 13.17,105.97 39.42,139.28 26.29,33.28 69.22,49.91 128.79,49.91l236.5 0c59.57,0 102.5,-16.63 128.75,-49.91 26.29,-33.31 39.42,-79.71 39.42,-139.28l0 -304.85 593.9 -320.6 0 867.19c0,136.68 -29.77,238.26 -89.33,304.85 -59.57,66.59 -161.18,99.86 -304.85,99.86l-993.35 0c-143.62,0 -245.24,-33.27 -304.81,-99.86 -59.56,-66.59 -89.36,-168.17 -89.36,-304.85l0 -2107.54c0,-136.64 29.8,-238.26 89.36,-304.81 59.57,-66.58 161.19,-99.86 304.81,-99.86l993.35 0c143.67,0 245.28,33.28 304.85,99.86 59.56,66.55 89.33,168.17 89.33,304.81l0 788.36zm-1166.78 68.34l420.47 -236.51c49.08,-28.04 83.23,-56.93 102.5,-86.73 19.27,-29.76 28.88,-74.45 28.88,-134.01l0 -157.67c0,-59.57 -13.13,-106.01 -39.42,-139.28 -26.25,-33.28 -70.93,-49.95 -134.01,-49.95l-210.21 0c-59.57,0 -102.5,16.67 -128.79,49.95 -26.25,33.27 -39.42,79.71 -39.42,139.28l0 614.92zm2806.56 1970.89c-28.04,157.67 -83.22,271.54 -165.57,341.64 -82.34,70.05 -209.33,105.08 -381.05,105.08l-756.8 0 0 -599.12 278.56 147.13 57.81 0c73.57,0 121.77,-28.88 144.51,-86.69 22.78,-57.81 25.41,-132.3 7.9,-223.38l-504.53 -2648.89 -183.97 -268.03 967.05 0 -126.15 273.29 289.09 2186.37 294.32 -2186.37 -126.15 -273.29 935.53 0 -183.96 268.03 -546.59 2964.23z"/>
   </g>
   <path class="fil2" d="M7539.37 11249.68c71.26,-49.35 165.42,-217.9 208.02,-330.73 58.74,-155.61 74.82,-299.12 74.71,-481.87 -0.22,-366.95 0.23,-733.92 0.43,-1100.87 0.19,-358.92 14.09,-745.81 -1.34,-1101.32 -26.25,-605.01 -492.35,-1059.22 -1136.84,-1064.04 -366.46,-2.73 -734.26,0.4 -1100.88,0.55 -365.51,0.15 -736.04,-5.69 -1100.92,0.67 -279.68,4.87 -633.15,127.69 -780.1,315.95 -69.52,40.49 -182.24,220.04 -233.29,328.21 -64.99,137.71 -96.8,296.76 -99.84,468.52 -6.6,372.81 0.21,752.13 0.33,1125.67 0.13,371.65 -9.06,755.82 1.31,1125.91 9.59,342.56 167.6,630.75 340.05,783.53 210.89,186.82 430.44,303.32 821.07,303.95 375.18,0.6 750.41,0.29 1125.61,0.46 363.57,0.17 767.2,16.84 1125.94,-2.36 166.42,-8.91 302.54,-51.74 435.89,-117.24 110.2,-54.12 285.18,-177.22 319.85,-254.99z"/>
   <g style="clip-path:url(#id0)">
    <g>
     <path id="1" class="fil3" d="M5172.16 10964.3c-370.8,-127.82 -683.18,-80.33 -586.89,-180.4 71.13,-73.92 208.47,-135.09 266.5,-158.82 -37.86,0.18 -75.7,1.52 -113.35,4.06 -66.77,23.08 -394.12,140.19 -428.25,228.88 -73.36,190.6 678.58,158.84 495.18,243.55 -177.97,82.2 -822.22,154.44 -876.95,400.56 48.64,55.2 112.87,107.01 192.84,153.18 98.13,56.65 210.93,99.64 331.31,129.06 -28.53,-37.6 -176.29,-262.33 242.76,-407.5 458.51,-158.83 797.1,-302.18 476.85,-412.57z"/>
    </g>
   </g>
   <path class="fil4" d="M7539.37 11249.68c71.26,-49.35 165.42,-217.9 208.02,-330.73 58.74,-155.61 74.82,-299.12 74.71,-481.87 -0.22,-366.95 0.23,-733.92 0.43,-1100.87 0.19,-358.92 14.09,-745.81 -1.34,-1101.32 -26.25,-605.01 -492.35,-1059.22 -1136.84,-1064.04 -366.46,-2.73 -734.26,0.4 -1100.88,0.55 -365.51,0.15 -736.04,-5.69 -1100.92,0.67 -279.68,4.87 -633.15,127.69 -780.1,315.95 -69.52,40.49 -182.24,220.04 -233.29,328.21 -64.99,137.71 -96.8,296.76 -99.84,468.52 -6.6,372.81 0.21,752.13 0.33,1125.67 0.13,371.65 -9.06,755.82 1.31,1125.91 9.59,342.56 167.6,630.75 340.05,783.53 210.89,186.82 430.44,303.32 821.07,303.95 375.18,0.6 750.41,0.29 1125.61,0.46 363.57,0.17 767.2,16.84 1125.94,-2.36 166.42,-8.91 302.54,-51.74 435.89,-117.24 110.2,-54.12 285.18,-177.22 319.85,-254.99z"/>
   <path class="fil5" d="M5468.59 10752.16c-172.11,1.23 -359.23,-5.29 -569.85,-5.18 -427.43,0.19 -338.15,30.06 -346.79,-317.25 -1.83,-73.38 -16.39,-137.03 -37.96,-194.76 -212.41,-254.39 -340.23,-581.81 -340.23,-939.14 0,-809.87 656.48,-1466.36 1466.35,-1466.36 172.19,0 337.33,29.8 490.82,84.29l12.22 4.28c16.83,6.15 33.48,12.7 50.02,19.45l14.26 5.81c528.18,221.72 899.03,743.79 899.03,1352.53 0,809.86 -656.49,1466.35 -1466.35,1466.35 -58.03,0 -115.24,-3.47 -171.52,-10.02z"/>
   <path class="fil6" d="M8610.68 12612.49l661.03 0 0 225.97 -431.68 0 0 217.53 431.68 0 0 222.63 -431.68 0 0 318.69 431.68 0 0 225.97 -661.03 0 0 -1210.79zm1512.63 -30.35l224.3 0 0 1241.14 -224.3 0 0 -95.26c-43.85,41.59 -87.95,71.35 -132.09,89.66 -44.1,18.27 -92.17,27.51 -143.63,27.51 -116.04,0 -216.11,-44.69 -300.71,-134.31 -84.6,-89.41 -126.74,-200.68 -126.74,-333.61 0,-138.02 41.01,-251.01 122.81,-339.25 81.8,-87.95 181,-132.09 297.91,-132.09 53.97,0 104.29,10.12 151.49,30.05 47.23,20.24 90.79,50.62 130.96,90.8l0 -444.64zm-236.34 529.53c-69.73,0 -127.62,24.45 -173.43,73.61 -46.07,48.91 -69.14,111.86 -69.14,188.61 0,77.28 23.32,140.78 70.27,190.81 46.94,49.75 104.54,74.79 173.13,74.79 70.56,0 129.29,-24.46 175.65,-73.66 46.65,-48.9 69.97,-113.28 69.97,-192.78 0,-77.87 -23.32,-140.83 -69.97,-189.15 -46.36,-48.07 -105.38,-72.23 -176.48,-72.23zm713.82 -514.35l224.3 0 0 330.51 133.22 0 0 193.96 -133.22 0 0 701.49 -224.3 0 0 -701.49 -114.66 0 0 -193.96 114.66 0 0 -330.51zm1374.94 841.48l-720.93 0c10.41,63.79 38.25,114.66 83.23,152.61 44.93,37.67 102.57,56.48 172.26,56.48 83.76,0 155.41,-29.51 215.56,-88.54l188.31 89.12c-46.94,66.88 -103.41,116.33 -168.91,148.69 -65.76,32.02 -143.63,48.03 -233.84,48.03 -139.94,0 -254.06,-44.1 -342.05,-132.64 -87.95,-88.24 -132.09,-198.97 -132.09,-331.93 0,-136.32 44.14,-249.55 132.09,-339.51 87.99,-90.2 198.18,-135.18 331.1,-135.18 140.83,0 255.49,44.98 343.73,134.64 88.24,89.91 132.38,208.25 132.38,355.8l-0.84 42.43zm-223.46 -175.39c-14.88,-48.87 -44.1,-88.79 -87.66,-119.43 -43.85,-30.64 -94.47,-45.81 -152.36,-45.81 -62.66,0 -117.46,17.14 -164.94,51.71 -29.51,21.36 -57.06,59.31 -82.35,113.53l487.31 0zm1283.61 -153.45l-186.89 102.87c-35.16,-36.83 -69.73,-62.12 -104,-76.45 -34.32,-14.34 -74.49,-21.36 -120.6,-21.36 -84.02,0 -152.03,25.03 -203.73,74.78 -52,50.03 -77.88,113.82 -77.88,191.94 0,75.91 25.04,137.74 74.78,185.77 50.04,48.07 115.5,71.98 196.72,71.98 100.36,0 178.48,-34.32 234.71,-102.88l176.77 121.39c-96.14,124.82 -231.62,187.19 -406.68,187.19 -157.67,0 -281.06,-46.65 -370.18,-139.66 -89.08,-93.05 -133.76,-201.81 -133.76,-326.59 0,-86.57 21.65,-166.11 64.91,-238.89 43.56,-72.81 104,-130.12 181.84,-171.71 77.58,-41.59 164.44,-62.41 260.54,-62.41 89.12,0 168.91,17.72 239.76,53.13 70.81,35.4 128.71,85.69 173.69,150.9zm204.32 -527.82l224.3 0 0 437.32c43.85,-37.91 87.69,-66.3 132.09,-85.15 44.1,-18.81 89.07,-28.38 134.34,-28.38 88.54,0 163.28,30.64 224.01,92.17 51.96,53.13 77.83,131.25 77.83,234.12l0 591.06 -220.91 0 0 -392.09c0,-103.41 -4.77,-173.68 -14.59,-210.21 -9.86,-36.83 -26.71,-64.08 -50.62,-82.35 -23.58,-17.97 -53.09,-26.96 -87.95,-26.96 -45.27,0 -84.31,15.18 -116.91,45.23 -32.32,30.1 -54.8,71.1 -67.47,123.1 -6.48,27 -9.82,88.24 -9.82,184.09l0 359.19 -224.3 0 0 -1241.14zm1505.9 30.35l244.78 0c132.38,0 227.65,12.12 286.12,36.58 58.44,24.41 104.84,64.08 138.53,118.58 33.73,54.51 50.62,120.01 50.62,196.47 0,84.6 -22.19,154.82 -66.63,210.8 -44.1,55.92 -104.25,94.97 -180.41,116.91 -44.68,12.63 -125.94,18.81 -243.7,18.81l0 512.64 -229.31 0 0 -1210.79zm229.31 473.89l73.95 0c58.14,0 98.36,-4.22 121.1,-12.37 22.78,-8.44 40.5,-21.95 53.71,-41.05 12.92,-19.1 19.39,-42.18 19.39,-69.43 0,-46.94 -18.26,-81.22 -54.84,-102.58 -26.42,-16.01 -75.87,-24.16 -147.8,-24.16l-65.51 0 0 249.59zm639.13 -158.55l193.96 0 0 113.83c20.77,-44.4 48.32,-78.13 82.59,-101.16 34.57,-23.03 72.24,-34.57 112.99,-34.57 28.97,0 59.32,7.57 91.08,23.03l-69.72 193.96c-26.12,-13.21 -47.78,-19.69 -64.62,-19.69 -34.28,0 -63.54,21.36 -87.11,64.08 -23.91,42.72 -35.7,126.49 -35.7,251.26l0.83 43.56 0 361.15 -224.3 0 0 -895.45zm680.72 -367.59c39.38,0 73.07,14.34 101.2,42.72 28.38,28.38 42.43,62.66 42.43,103.12 0,39.92 -14.05,73.95 -41.89,102.04 -27.79,28.09 -61.23,42.17 -100.32,42.17 -39.92,0 -73.9,-14.33 -102.03,-43.01 -28.38,-28.67 -42.43,-63.54 -42.43,-104.54 0,-39.38 14.05,-72.82 41.89,-100.62 27.79,-27.83 61.53,-41.88 101.15,-41.88zm-112.69 367.59l224.3 0 0 895.45 -224.3 0 0 -895.45zm332.52 0l229.9 0 225.39 528.4 227.35 -528.4 227.94 0 -385.32 895.45 -143.33 0 -381.93 -895.45zm1702.32 0l224.3 0 0 895.45 -224.3 0 0 -95.26c-43.85,41.59 -87.95,71.35 -132.09,89.66 -44.1,18.27 -92.17,27.51 -143.62,27.51 -116.04,0 -216.11,-44.69 -300.72,-134.31 -84.6,-89.41 -126.73,-200.68 -126.73,-333.61 0,-138.02 41,-251.01 122.81,-339.25 81.8,-87.95 180.99,-132.09 297.91,-132.09 53.96,0 104.29,10.12 151.48,30.05 47.24,19.99 90.79,50.33 130.96,90.25l0 -98.4zm-236.34 183.84c-69.72,0 -127.61,24.45 -173.43,73.61 -46.06,48.91 -69.13,111.86 -69.13,188.61 0,77.28 23.32,140.78 70.26,190.81 46.94,49.75 104.54,74.79 173.14,74.79 70.56,0 129.29,-24.46 175.64,-73.66 46.65,-48.9 69.98,-113.28 69.98,-192.78 0,-77.87 -23.33,-140.83 -69.98,-189.15 -46.35,-48.07 -105.37,-72.23 -176.48,-72.23zm713.83 -514.35l224.3 0 0 330.51 133.22 0 0 193.96 -133.22 0 0 701.49 -224.3 0 0 -701.49 -114.66 0 0 -193.96 114.66 0 0 -330.51zm1374.94 841.48l-720.93 0c10.41,63.79 38.25,114.66 83.22,152.61 44.94,37.67 102.58,56.48 172.26,56.48 83.77,0 155.42,-29.51 215.57,-88.54l188.31 89.12c-46.94,66.88 -103.42,116.33 -168.92,148.69 -65.75,32.02 -143.62,48.03 -233.83,48.03 -139.95,0 -254.06,-44.1 -342.05,-132.64 -87.95,-88.24 -132.09,-198.97 -132.09,-331.93 0,-136.32 44.14,-249.55 132.09,-339.51 87.99,-90.2 198.17,-135.18 331.1,-135.18 140.82,0 255.48,44.98 343.72,134.64 88.24,89.91 132.39,208.25 132.39,355.8l-0.84 42.43zm-223.47 -175.39c-14.88,-48.87 -44.1,-88.79 -87.65,-119.43 -43.85,-30.64 -94.47,-45.81 -152.36,-45.81 -62.66,0 -117.46,17.14 -164.95,51.71 -29.51,21.36 -57.06,59.31 -82.34,113.53l487.3 0zm902.22 -650.92l229.32 0 0 991.59 338.96 0 0 219.2 -568.28 0 0 -1210.79zm807.42 -52.25c39.38,0 73.07,14.34 101.2,42.72 28.38,28.38 42.43,62.66 42.43,103.12 0,39.92 -14.05,73.95 -41.89,102.04 -27.79,28.09 -61.23,42.17 -100.32,42.17 -39.92,0 -73.9,-14.33 -102.03,-43.01 -28.38,-28.67 -42.43,-63.54 -42.43,-104.54 0,-39.38 14.05,-72.82 41.88,-100.62 27.8,-27.83 61.53,-41.88 101.16,-41.88zm-112.69 367.59l224.3 0 0 895.45 -224.3 0 0 -895.45zm426.11 0l224.26 0 0 104.59c38.5,-42.47 81.22,-74.2 128.45,-95.01 46.94,-21.07 98.36,-31.48 154,-31.48 55.92,0 106.8,13.75 151.77,41.3 45.27,27.55 81.51,68.01 109.06,120.89 35.7,-52.88 79.55,-93.34 131.55,-120.89 51.95,-27.55 109.01,-41.3 170.58,-41.3 63.79,0 120.01,14.88 168.33,44.39 48.66,29.51 83.23,68.3 104.59,115.79 21.07,47.78 31.72,125.36 31.72,232.74l0 524.43 -224.25 0 0 -452.49c0,-101.2 -12.67,-169.75 -38.25,-205.45 -25.54,-35.69 -64.08,-53.67 -114.95,-53.67 -39.04,0 -73.91,10.95 -104.55,32.86 -30.89,21.65 -53.96,52 -68.84,90.49 -14.88,38.54 -22.49,100.37 -22.49,185.81l0 402.45 -224.26 0 0 -431.96c0,-79.84 -5.93,-137.74 -18.02,-173.43 -11.78,-35.95 -29.76,-62.37 -53.37,-80.09 -23.91,-17.43 -52.84,-26.13 -86.57,-26.13 -37.67,0 -71.94,10.95 -102.58,33.15 -30.93,22.2 -53.71,53.13 -69.14,93.05 -15.17,39.87 -22.78,102.83 -22.78,188.56l0 396.85 -224.26 0 0 -895.45zm1675.86 -367.59c39.38,0 73.07,14.34 101.2,42.72 28.38,28.38 42.43,62.66 42.43,103.12 0,39.92 -14.05,73.95 -41.89,102.04 -27.79,28.09 -61.23,42.17 -100.32,42.17 -39.92,0 -73.9,-14.33 -102.03,-43.01 -28.38,-28.67 -42.43,-63.54 -42.43,-104.54 0,-39.38 14.05,-72.82 41.89,-100.62 27.79,-27.83 61.53,-41.88 101.15,-41.88zm-112.69 367.59l224.3 0 0 895.45 -224.3 0 0 -895.45zm454.75 -330.51l224.3 0 0 330.51 133.21 0 0 193.96 -133.21 0 0 701.49 -224.3 0 0 -701.49 -114.66 0 0 -193.96 114.66 0 0 -330.51zm1374.94 841.48l-720.94 0c10.41,63.79 38.25,114.66 83.23,152.61 44.93,37.67 102.58,56.48 172.26,56.48 83.77,0 155.41,-29.51 215.56,-88.54l188.31 89.12c-46.94,66.88 -103.41,116.33 -168.91,148.69 -65.75,32.02 -143.63,48.03 -233.83,48.03 -139.95,0 -254.07,-44.1 -342.06,-132.64 -87.94,-88.24 -132.08,-198.97 -132.08,-331.93 0,-136.32 44.14,-249.55 132.08,-339.51 87.99,-90.2 198.18,-135.18 331.11,-135.18 140.82,0 255.48,44.98 343.72,134.64 88.24,89.91 132.38,208.25 132.38,355.8l-0.83 42.43zm-223.47 -175.39c-14.88,-48.87 -44.1,-88.79 -87.65,-119.43 -43.85,-30.64 -94.47,-45.81 -152.37,-45.81 -62.66,0 -117.46,17.14 -164.94,51.71 -29.51,21.36 -57.06,59.31 -82.35,113.53l487.31 0zm1069.42 -681.27l224.3 0 0 1241.14 -224.3 0 0 -95.26c-43.85,41.59 -87.95,71.35 -132.09,89.66 -44.1,18.27 -92.17,27.51 -143.62,27.51 -116.04,0 -216.11,-44.69 -300.71,-134.31 -84.61,-89.41 -126.74,-200.68 -126.74,-333.61 0,-138.02 41,-251.01 122.81,-339.25 81.8,-87.95 180.99,-132.09 297.91,-132.09 53.96,0 104.29,10.12 151.48,30.05 47.24,20.24 90.79,50.62 130.96,90.8l0 -444.64zm-236.34 529.53c-69.72,0 -127.61,24.45 -173.43,73.61 -46.06,48.91 -69.13,111.86 -69.13,188.61 0,77.28 23.32,140.78 70.26,190.81 46.94,49.75 104.54,74.79 173.14,74.79 70.56,0 129.29,-24.46 175.64,-73.66 46.65,-48.9 69.98,-113.28 69.98,-192.78 0,-77.87 -23.33,-140.83 -69.98,-189.15 -46.35,-48.07 -105.37,-72.23 -176.48,-72.23z"/>
   <path class="fil7" d="M5724.34 10325.33c126.63,0.9 264.3,-3.89 419.26,-3.81 314.47,0.14 248.78,22.12 255.14,-233.41 1.34,-53.99 12.06,-100.82 27.92,-143.29 156.28,-187.16 250.33,-428.05 250.33,-690.95 0,-595.84 -483,-1078.83 -1078.84,-1078.83 -126.68,0 -248.18,21.92 -361.11,62.01l-8.98 3.15c-12.39,4.52 -24.64,9.34 -36.81,14.3l-10.49 4.28c-388.59,163.12 -661.44,547.22 -661.44,995.09 0,595.84 482.99,1078.83 1078.83,1078.83 42.7,0 84.79,-2.55 126.19,-7.37z"/>
  </g>
 </g>
</svg>
