<svg width="230" height="67" viewBox="0 0 230 67" fill="none" xmlns="http://www.w3.org/2000/svg">
<path d="M60.8025 32.6454C60.8025 33.5212 61.2581 33.9592 62.1689 33.9592L64.4291 32.7504V38.5318H58.595C57.1938 38.5318 56.1864 38.1991 55.5732 37.5332C54.96 36.8673 54.6532 35.8515 54.6532 34.4847V13.9348H52.3408V9.36262H54.6532V5.52583L60.8025 4.05403V9.36262H64.4291V13.9348H60.8025V32.6454V32.6454ZM67.2146 28.8086C67.2146 27.8275 67.3986 26.9865 67.7664 26.2859C68.1342 25.5854 68.7562 24.9897 69.6324 24.499L78.8824 19.4537V15.8271C78.8824 15.2314 78.7507 14.767 78.4882 14.4343C78.2253 14.1015 77.7784 13.9348 77.1477 13.9348H75.2558C74.6601 13.9348 74.2221 14.1015 73.942 14.4343C73.6615 14.767 73.5215 15.2314 73.5215 15.8271V17.9292L67.6352 21.1353V13.4093C67.6352 12.0429 67.9328 11.0267 68.5284 10.3612C69.1241 9.69542 70.1402 9.36262 71.5769 9.36262H81.0899C82.491 9.36262 83.4984 9.69542 84.1116 10.3612C84.7248 11.0267 85.0316 12.0429 85.0316 13.4093V35.8515L86.5557 38.5318H71.1564C69.7197 38.5318 68.7036 38.1991 68.1079 37.5332C67.5123 36.8673 67.2146 35.8515 67.2146 34.4847V28.8086V28.8086ZM78.8824 33.9592V25.2347L75.2558 27.2319C74.5201 27.6524 74.0118 28.0729 73.7317 28.4934C73.4513 28.9139 73.3112 29.5794 73.3112 30.4906V31.4366C73.3112 32.2425 73.4952 32.8645 73.863 33.3021C74.2308 33.7402 74.8177 33.9592 75.6236 33.9592H78.8824V33.9592ZM95.9106 35.8515L97.4351 38.5318H88.2373L89.7614 35.8515V5.57842L88.2373 2.89782L95.9106 1.21613V35.8515ZM106.79 21.6607L111.783 12.0429L111.678 9.36262H121.243L118.458 11.9902L112.571 21.3982L119.194 35.9038L121.664 38.5318H111.836L112.256 35.8515L108.787 26.6011L106.79 29.7545V35.8515L108.315 38.5318H99.1167L100.641 35.8515V5.57842L99.1167 2.89782L106.79 1.21613V21.6607V21.6607Z" fill="#55A853"/>
<path d="M127.603 38.5318L122.663 12.0429L120.823 9.36262H130.441L129.18 12.0955L132.123 33.8016L135.119 12.0955L133.91 9.36262H143.318L141.425 12.0429L136.485 38.5318H127.603V38.5318ZM144.421 28.8086C144.421 27.8275 144.605 26.9865 144.973 26.2859C145.341 25.5854 145.963 24.9897 146.839 24.499L156.089 19.4537V15.8271C156.089 15.2314 155.957 14.767 155.695 14.4343C155.432 14.1015 154.985 13.9348 154.354 13.9348H152.462C151.867 13.9348 151.429 14.1015 151.149 14.4343C150.868 14.767 150.728 15.2314 150.728 15.8271V17.9292L144.842 21.1353V13.4093C144.842 12.0429 145.139 11.0267 145.735 10.3612C146.331 9.69542 147.347 9.36262 148.784 9.36262H158.297C159.698 9.36262 160.705 9.69542 161.318 10.3612C161.931 11.0267 162.238 12.0429 162.238 13.4093V35.8515L163.762 38.5318H148.363C146.926 38.5318 145.91 38.1991 145.315 37.5332C144.719 36.8673 144.421 35.8515 144.421 34.4847V28.8086V28.8086ZM156.089 33.9592V25.2347L152.462 27.2319C151.727 27.6524 151.218 28.0729 150.938 28.4934C150.658 28.9139 150.518 29.5794 150.518 30.4906V31.4366C150.518 32.2425 150.702 32.8645 151.07 33.3021C151.437 33.7402 152.024 33.9592 152.83 33.9592H156.089V33.9592ZM173.117 35.8515L174.642 38.5318H165.444L166.968 35.8515V5.57843L165.444 2.89782L173.117 1.21613V35.8515V35.8515ZM183.997 35.8515L185.521 38.5318H176.323L177.847 35.8515V5.57843L176.323 2.89782L183.997 1.21613V35.8515V35.8515ZM205.966 21.2929L194.298 27.6524V32.0673C194.298 32.663 194.43 33.127 194.692 33.4601C194.955 33.7929 195.384 33.9592 195.98 33.9592H198.345C198.941 33.9592 199.37 33.7929 199.633 33.4601C199.895 33.127 200.027 32.663 200.027 32.0673V29.0188L205.966 25.8128V34.4847C205.966 35.8515 205.668 36.8673 205.072 37.5332C204.477 38.1991 203.461 38.5318 202.024 38.5318H192.09C190.654 38.5318 189.638 38.1991 189.042 37.5332C188.447 36.8673 188.149 35.8515 188.149 34.4847V13.4093C188.149 12.0429 188.447 11.0267 189.042 10.3612C189.638 9.69542 190.654 9.36262 192.09 9.36262H202.024C203.461 9.36262 204.477 9.69542 205.072 10.3612C205.668 11.0267 205.966 12.0429 205.966 13.4093V21.2929ZM194.298 21.9763L198.503 19.6112C198.993 19.3308 199.335 19.0419 199.528 18.7439C199.72 18.4463 199.816 17.9994 199.816 17.4038V15.8271C199.816 15.2314 199.685 14.767 199.422 14.4343C199.16 14.1015 198.713 13.9348 198.082 13.9348H195.98C195.384 13.9348 194.955 14.1015 194.692 14.4343C194.43 14.767 194.298 15.2314 194.298 15.8271V21.9763V21.9763ZM222.364 41.6852C222.083 43.2619 221.531 44.4006 220.708 45.1016C219.884 45.8021 218.615 46.1524 216.897 46.1524H209.329V40.1612L212.115 41.6325H212.693C213.429 41.6325 213.911 41.3437 214.138 40.7656C214.366 40.1875 214.392 39.4426 214.217 38.5318L209.172 12.0429L207.332 9.36262H217.003L215.741 12.0955L218.632 33.9592L221.575 12.0955L220.314 9.36262H229.669L227.829 12.0429L222.364 41.6852V41.6852Z" fill="#EC6433"/>
<path fill-rule="evenodd" clip-rule="evenodd" d="M41.7335 40.8058C42.4461 40.3123 43.3877 38.6268 43.8137 37.4985C44.4011 35.9424 44.5619 34.5073 44.5608 32.6798C44.5586 29.0103 44.5631 25.3406 44.5651 21.6711C44.567 18.0819 44.706 14.213 44.5517 10.6579C44.2892 4.60785 39.6282 0.0657495 33.1833 0.0175495C29.5187 -0.00975052 25.8407 0.0215475 22.1745 0.0230475C18.5194 0.0245475 14.8141 -0.0338533 11.1653 0.0297467C8.36852 0.0784467 4.83382 1.30665 3.36432 3.18925C2.66912 3.59415 1.54192 5.38965 1.03142 6.47135C0.381521 7.84845 0.0634229 9.43895 0.0330229 11.1565C-0.0329771 14.8846 0.0351213 18.6778 0.0363213 22.4132C0.0376213 26.1297 -0.0542781 29.9714 0.0494219 33.6723C0.145322 37.0979 1.72542 39.9799 3.44992 41.5077C5.55882 43.3759 7.75432 44.5408 11.6606 44.5471C15.4124 44.5531 19.1647 44.55 22.9167 44.5517C26.5524 44.5534 30.5887 44.7201 34.1761 44.5281C35.8403 44.439 37.2015 44.0107 38.535 43.3557C39.637 42.8145 41.3868 41.5835 41.7335 40.8058Z" fill="url(#paint0_linear)"/>
<path d="M18.0614 37.952C14.3534 36.6738 11.2296 37.1487 12.1925 36.148C12.9038 35.4088 14.2772 34.7971 14.8575 34.5598C14.4789 34.5616 14.1005 34.575 13.724 34.6004C13.0563 34.8312 9.78281 36.0023 9.44151 36.8892C8.70791 38.7952 16.2273 38.4776 14.3933 39.3247C12.6136 40.1467 6.17111 40.8691 5.62381 43.3303C6.11021 43.8823 6.75251 44.4004 7.55221 44.8621C8.53351 45.4286 9.66151 45.8585 10.8653 46.1527C10.58 45.7767 9.10241 43.5294 13.2929 42.0777C17.878 40.4894 21.2639 39.0559 18.0614 37.952V37.952Z" fill="#FEFEFE"/>
<path fill-rule="evenodd" clip-rule="evenodd" d="M21.0257 35.8307C19.3046 35.843 17.4334 35.7778 15.3272 35.7789C11.0529 35.7808 11.9457 36.0795 11.8593 32.6064C11.841 31.8726 11.6954 31.2361 11.4797 30.6588C9.35563 28.1149 8.07742 24.8407 8.07742 21.2674C8.07742 13.1687 14.6422 6.60376 22.7409 6.60376C24.4628 6.60376 26.1142 6.90176 27.6491 7.44666L27.7713 7.48946C27.9396 7.55096 28.1061 7.61646 28.2715 7.68396L28.4141 7.74206C33.6959 9.95926 37.4044 15.18 37.4044 21.2674C37.4044 29.366 30.8395 35.9309 22.7409 35.9309C22.1606 35.9309 21.5885 35.8962 21.0257 35.8307Z" fill="#FEFEFE"/>
<path d="M52.4466 54.4339H59.0569V56.6936H54.7401V58.8689H59.0569V61.0952H54.7401V64.2821H59.0569V66.5418H52.4466V54.4339V54.4339ZM67.5729 54.1304H69.8159V66.5418H67.5729V65.5892C67.1344 66.0051 66.6934 66.3027 66.252 66.4858C65.811 66.6685 65.3303 66.7609 64.8157 66.7609C63.6553 66.7609 62.6546 66.314 61.8086 65.4178C60.9626 64.5237 60.5412 63.411 60.5412 62.0817C60.5412 60.7015 60.9513 59.5716 61.7693 58.6892C62.5873 57.8097 63.5793 57.3683 64.7484 57.3683C65.2881 57.3683 65.7913 57.4695 66.2633 57.6688C66.7356 57.8712 67.1712 58.175 67.5729 58.5768V54.1304V54.1304ZM65.2095 59.4257C64.5122 59.4257 63.9333 59.6702 63.4752 60.1618C63.0145 60.6509 62.7838 61.2804 62.7838 62.0479C62.7838 62.8207 63.017 63.4557 63.4865 63.956C63.9559 64.4535 64.5319 64.7039 65.2178 64.7039C65.9234 64.7039 66.5107 64.4593 66.9743 63.9673C67.4408 63.4783 67.674 62.8345 67.674 62.0395C67.674 61.2608 67.4408 60.6312 66.9743 60.148C66.5107 59.6673 65.9205 59.4257 65.2095 59.4257V59.4257ZM72.3477 54.2822H74.5907V57.5873H75.9229V59.5269H74.5907V66.5418H72.3477V59.5269H71.2011V57.5873H72.3477V54.2822ZM86.0971 62.697H78.8878C78.9919 63.3349 79.2703 63.8436 79.7201 64.2231C80.1694 64.5998 80.7458 64.7879 81.4427 64.7879C82.2803 64.7879 82.9968 64.4928 83.5983 63.9025L85.4814 64.7937C85.012 65.4625 84.4473 65.957 83.7923 66.2806C83.1347 66.6008 82.356 66.7609 81.4539 66.7609C80.0545 66.7609 78.9133 66.3199 78.0334 65.4345C77.1539 64.5521 76.7125 63.4448 76.7125 62.1152C76.7125 60.752 77.1539 59.6197 78.0334 58.7201C78.9133 57.8181 80.0152 57.3683 81.3444 57.3683C82.7527 57.3683 83.8993 57.8181 84.7817 58.7147C85.6641 59.6138 86.1055 60.7972 86.1055 62.2727L86.0971 62.697V62.697ZM83.8625 60.9431C83.7137 60.4544 83.4215 60.0552 82.9859 59.7488C82.5474 59.4424 82.0412 59.2907 81.4623 59.2907C80.8357 59.2907 80.2877 59.4621 79.8129 59.8078C79.5178 60.0214 79.2423 60.4009 78.9894 60.9431H83.8625V60.9431ZM96.6986 59.4086L94.8297 60.4373C94.4781 60.069 94.1324 59.8161 93.7897 59.6728C93.4465 59.5294 93.0448 59.4592 92.5837 59.4592C91.7435 59.4592 91.0634 59.7095 90.5464 60.207C90.0264 60.7073 89.7676 61.3452 89.7676 62.1264C89.7676 62.8855 90.018 63.5038 90.5154 63.9841C91.0158 64.4648 91.6704 64.7039 92.4826 64.7039C93.4862 64.7039 94.2674 64.3607 94.8297 63.6751L96.5974 64.889C95.636 66.1372 94.2812 66.7609 92.5306 66.7609C90.9539 66.7609 89.72 66.2944 88.8288 65.3643C87.938 64.4338 87.4912 63.3462 87.4912 62.0984C87.4912 61.2327 87.7077 60.4373 88.1403 59.7095C88.5759 58.9814 89.1803 58.4083 89.9587 57.9924C90.7345 57.5765 91.6031 57.3683 92.5641 57.3683C93.4553 57.3683 94.2532 57.5455 94.9617 57.8996C95.6698 58.2536 96.2488 58.7565 96.6986 59.4086V59.4086ZM98.7418 54.1304H100.985V58.5036C101.423 58.1245 101.862 57.8406 102.306 57.6521C102.747 57.464 103.196 57.3683 103.649 57.3683C104.535 57.3683 105.282 57.6747 105.889 58.29C106.409 58.8213 106.668 59.6025 106.668 60.6312V66.5418H104.458V62.6209C104.458 61.5868 104.411 60.8841 104.313 60.5188C104.214 60.1505 104.045 59.878 103.806 59.6953C103.571 59.5156 103.275 59.4257 102.927 59.4257C102.474 59.4257 102.084 59.5775 101.758 59.878C101.435 60.179 101.21 60.589 101.083 61.109C101.018 61.379 100.985 61.9914 100.985 62.9499V66.5418H98.7418V54.1304V54.1304ZM113.801 54.4339H116.249C117.572 54.4339 118.525 54.5551 119.11 54.7997C119.694 55.0438 120.158 55.4405 120.495 55.9855C120.832 56.5306 121.001 57.1856 121.001 57.9502C121.001 58.7962 120.779 59.4984 120.335 60.0582C119.894 60.6174 119.293 61.0079 118.531 61.2273C118.084 61.3536 117.272 61.4154 116.094 61.4154V66.5418H113.801V54.4339V54.4339ZM116.094 59.1728H116.833C117.415 59.1728 117.817 59.1306 118.044 59.0491C118.272 58.9647 118.449 58.8296 118.582 58.6386C118.711 58.4476 118.775 58.2168 118.775 57.9443C118.775 57.4749 118.593 57.1321 118.227 56.9185C117.963 56.7584 117.468 56.6769 116.749 56.6769H116.094V59.1728ZM122.485 57.5873H124.425V58.7256C124.633 58.2816 124.908 57.9443 125.251 57.714C125.596 57.4837 125.973 57.3683 126.381 57.3683C126.67 57.3683 126.974 57.444 127.291 57.5986L126.594 59.5382C126.333 59.4061 126.116 59.3413 125.948 59.3413C125.605 59.3413 125.313 59.5549 125.077 59.9821C124.838 60.4093 124.72 61.247 124.72 62.4947L124.728 62.9303V66.5418H122.485V57.5873V57.5873ZM129.292 53.9114C129.686 53.9114 130.023 54.0548 130.304 54.3386C130.588 54.6224 130.729 54.9652 130.729 55.3698C130.729 55.769 130.588 56.1093 130.31 56.3902C130.032 56.6711 129.698 56.8119 129.307 56.8119C128.907 56.8119 128.568 56.6686 128.286 56.3818C128.003 56.0951 127.862 55.7464 127.862 55.3364C127.862 54.9426 128.003 54.6082 128.281 54.3302C128.559 54.0519 128.896 53.9114 129.292 53.9114V53.9114ZM128.166 57.5873H130.409V66.5418H128.166V57.5873ZM131.491 57.5873H133.79L136.044 62.8713L138.317 57.5873H140.597L136.743 66.5418H135.31L131.491 57.5873V57.5873ZM148.514 57.5873H150.757V66.5418H148.514V65.5892C148.075 66.0051 147.634 66.3027 147.193 66.4858C146.752 66.6685 146.271 66.7609 145.757 66.7609C144.596 66.7609 143.596 66.314 142.75 65.4178C141.904 64.5237 141.482 63.411 141.482 62.0817C141.482 60.7015 141.892 59.5716 142.71 58.6892C143.528 57.8097 144.52 57.3683 145.69 57.3683C146.229 57.3683 146.732 57.4695 147.204 57.6688C147.677 57.8687 148.112 58.1721 148.514 58.5713V57.5873ZM146.151 59.4257C145.453 59.4257 144.874 59.6702 144.416 60.1618C143.956 60.6509 143.725 61.2804 143.725 62.0479C143.725 62.8207 143.958 63.4557 144.428 63.956C144.897 64.4535 145.473 64.7039 146.159 64.7039C146.865 64.7039 147.452 64.4593 147.915 63.9673C148.382 63.4783 148.615 62.8345 148.615 62.0395C148.615 61.2608 148.382 60.6312 147.915 60.148C147.452 59.6673 146.862 59.4257 146.151 59.4257V59.4257ZM153.289 54.2822H155.532V57.5873H156.864V59.5269H155.532V66.5418H153.289V59.5269H152.142V57.5873H153.289V54.2822ZM167.038 62.697H159.829C159.933 63.3349 160.211 63.8436 160.661 64.2231C161.111 64.5998 161.687 64.7879 162.384 64.7879C163.221 64.7879 163.938 64.4928 164.539 63.9025L166.423 64.7937C165.953 65.4625 165.388 65.957 164.733 66.2806C164.076 66.6008 163.297 66.7609 162.395 66.7609C160.996 66.7609 159.854 66.3199 158.975 65.4345C158.095 64.5521 157.654 63.4448 157.654 62.1152C157.654 60.752 158.095 59.6197 158.975 58.7201C159.854 57.8181 160.956 57.3683 162.286 57.3683C163.694 57.3683 164.84 57.8181 165.723 58.7147C166.605 59.6138 167.047 60.7972 167.047 62.2727L167.038 62.697ZM164.804 60.9431C164.655 60.4544 164.363 60.0552 163.927 59.7488C163.489 59.4424 162.982 59.2907 162.403 59.2907C161.777 59.2907 161.229 59.4621 160.754 59.8078C160.459 60.0214 160.183 60.4009 159.931 60.9431H164.804V60.9431ZM173.826 54.4339H176.119V64.3498H179.509V66.5418H173.826V54.4339V54.4339ZM181.9 53.9114C182.294 53.9114 182.631 54.0548 182.912 54.3386C183.196 54.6224 183.336 54.9652 183.336 55.3698C183.336 55.769 183.196 56.1093 182.917 56.3902C182.639 56.6711 182.305 56.8119 181.914 56.8119C181.515 56.8119 181.175 56.6686 180.894 56.3818C180.61 56.0951 180.47 55.7464 180.47 55.3364C180.47 54.9426 180.61 54.6082 180.888 54.3302C181.166 54.0519 181.504 53.9114 181.9 53.9114V53.9114ZM180.773 57.5873H183.016V66.5418H180.773V57.5873ZM185.034 57.5873H187.277V58.6332C187.662 58.2085 188.089 57.8912 188.561 57.6831C189.031 57.4724 189.545 57.3683 190.101 57.3683C190.66 57.3683 191.169 57.5058 191.619 57.7813C192.072 58.0568 192.434 58.4614 192.71 58.9902C193.067 58.4614 193.505 58.0568 194.025 57.7813C194.545 57.5058 195.115 57.3683 195.731 57.3683C196.369 57.3683 196.931 57.5171 197.414 57.8122C197.901 58.1073 198.246 58.4952 198.46 58.9701C198.671 59.4479 198.777 60.2237 198.777 61.2975V66.5418H196.535V62.0169C196.535 61.0049 196.408 60.3194 196.152 59.9624C195.897 59.6055 195.511 59.4257 195.003 59.4257C194.612 59.4257 194.264 59.5352 193.957 59.7543C193.648 59.9708 193.418 60.2743 193.269 60.6592C193.12 61.0446 193.044 61.6629 193.044 62.5173V66.5418H190.801V62.2222C190.801 61.4238 190.742 60.8448 190.621 60.4879C190.503 60.1284 190.324 59.8642 190.087 59.687C189.848 59.5127 189.559 59.4257 189.222 59.4257C188.845 59.4257 188.502 59.5352 188.196 59.7572C187.887 59.9792 187.659 60.2885 187.505 60.6877C187.353 61.0864 187.277 61.716 187.277 62.5733V66.5418H185.034V57.5873V57.5873ZM201.793 53.9114C202.187 53.9114 202.523 54.0548 202.805 54.3386C203.089 54.6224 203.229 54.9652 203.229 55.3698C203.229 55.769 203.089 56.1093 202.81 56.3902C202.532 56.6711 202.198 56.8119 201.807 56.8119C201.408 56.8119 201.068 56.6686 200.787 56.3818C200.503 56.0951 200.362 55.7464 200.362 55.3364C200.362 54.9426 200.503 54.6082 200.781 54.3302C201.059 54.0519 201.397 53.9114 201.793 53.9114V53.9114ZM200.666 57.5873H202.909V66.5418H200.666V57.5873ZM205.213 54.2822H207.456V57.5873H208.788V59.5269H207.456V66.5418H205.213V59.5269H204.067V57.5873H205.213V54.2822ZM218.963 62.697H211.753C211.857 63.3349 212.136 63.8436 212.586 64.2231C213.035 64.5998 213.611 64.7879 214.308 64.7879C215.146 64.7879 215.862 64.4928 216.464 63.9025L218.347 64.7937C217.878 65.4625 217.313 65.957 216.658 66.2806C216 66.6008 215.222 66.7609 214.32 66.7609C212.92 66.7609 211.779 66.3199 210.899 65.4345C210.02 64.5521 209.578 63.4448 209.578 62.1152C209.578 60.752 210.02 59.6197 210.899 58.7201C211.779 57.8181 212.881 57.3683 214.21 57.3683C215.618 57.3683 216.765 57.8181 217.647 58.7147C218.53 59.6138 218.971 60.7972 218.971 62.2727L218.963 62.697ZM216.728 60.9431C216.579 60.4544 216.287 60.0552 215.852 59.7488C215.413 59.4424 214.907 59.2907 214.328 59.2907C213.701 59.2907 213.153 59.4621 212.678 59.8078C212.383 60.0214 212.108 60.4009 211.855 60.9431H216.728V60.9431ZM227.422 54.1304H229.665V66.5418H227.422V65.5892C226.984 66.0051 226.543 66.3027 226.101 66.4858C225.66 66.6685 225.18 66.7609 224.665 66.7609C223.505 66.7609 222.504 66.314 221.658 65.4178C220.812 64.5237 220.391 63.411 220.391 62.0817C220.391 60.7015 220.801 59.5716 221.619 58.6892C222.437 57.8097 223.429 57.3683 224.598 57.3683C225.137 57.3683 225.641 57.4695 226.113 57.6688C226.585 57.8712 227.021 58.175 227.422 58.5768V54.1304V54.1304ZM225.059 59.4257C224.362 59.4257 223.783 59.6702 223.325 60.1618C222.864 60.6509 222.633 61.2804 222.633 62.0479C222.633 62.8207 222.866 63.4557 223.336 63.956C223.805 64.4535 224.381 64.7039 225.067 64.7039C225.773 64.7039 226.36 64.4593 226.824 63.9673C227.29 63.4783 227.523 62.8345 227.523 62.0395C227.523 61.2608 227.29 60.6312 226.824 60.148C226.36 59.6673 225.77 59.4257 225.059 59.4257V59.4257Z" fill="#4E565A"/>
<path fill-rule="evenodd" clip-rule="evenodd" d="M23.5832 31.5623C24.8495 31.5713 26.2262 31.5234 27.7758 31.5242C30.9205 31.5256 30.2636 31.7455 30.3272 29.1902C30.3406 28.6503 30.4478 28.1819 30.6064 27.7572C32.1692 25.8856 33.1097 23.4767 33.1097 20.8477C33.1097 14.8893 28.2797 10.0594 22.3213 10.0594C21.0545 10.0594 19.8395 10.2786 18.7102 10.6795L18.6204 10.711C18.4965 10.7562 18.374 10.8044 18.2523 10.854L18.1474 10.8969C14.2615 12.5281 11.533 16.369 11.533 20.8477C11.533 26.8061 16.3629 31.636 22.3213 31.636C22.7483 31.636 23.1692 31.6105 23.5832 31.5623Z" fill="#EC6433"/>
<defs>
<linearGradient id="paint0_linear" x1="22.3122" y1="44.6204" x2="22.3122" y2="0.000244681" gradientUnits="userSpaceOnUse">
<stop stop-color="#EC6433"/>
<stop offset="1" stop-color="#55A853"/>
</linearGradient>
</defs>
</svg>
